<?xml version="1.0" encoding="UTF-8" standalone="no"?>
<svg xmlns="http://www.w3.org/2000/svg" xmlns:inkscape="http://www.inkscape.org/namespaces/inkscape" width="512" height="320" viewBox="0 0 512 320">
<metadata>
{"creator": "OpenAI Codex — delegated Art Director + Visual Production owner", "date": "2026-07-13", "master": "labrador_master_right", "status": "AUTHORED_EDITABLE_SOURCE"}
</metadata>
<g id="dog.shadow.local" inkscape:groupmode="layer" inkscape:label="dog.shadow.local" data-default-visible="true">
<ellipse cx="261.5" cy="274.5" rx="206.5" ry="17.5" fill="#2b2118" fill-opacity="0.184314" stroke="#000000" stroke-opacity="0.000000" stroke-width="1" stroke-linejoin="round"/>
</g>
<g id="dog.leg.hind.far" inkscape:groupmode="layer" inkscape:label="dog.leg.hind.far" data-default-visible="true">
<polygon points="128,183 174,185 190,236 184,269 203,272 201,280 167,280 158,241 139,211" fill="#b97c3c" fill-opacity="1.000000" stroke="#5b3c23" stroke-opacity="1.000000" stroke-width="3" stroke-linejoin="round"/>
</g>
<g id="dog.leg.fore.far" inkscape:groupmode="layer" inkscape:label="dog.leg.fore.far" data-default-visible="true">
<polygon points="300,178 337,181 340,267 362,270 360,280 323,280 316,231" fill="#b97c3c" fill-opacity="1.000000" stroke="#5b3c23" stroke-opacity="1.000000" stroke-width="3" stroke-linejoin="round"/>
</g>
<g id="dog.tail" inkscape:groupmode="layer" inkscape:label="dog.tail" data-default-visible="true">
<polygon points="94,151 66,142 34,121 16,131 43,161 78,181 111,187" fill="#bd8440" fill-opacity="1.000000" stroke="#5b3c23" stroke-opacity="1.000000" stroke-width="3" stroke-linejoin="round"/>
<polyline points="28,132 49,151 77,166" fill="#000000" fill-opacity="0.000000" stroke="#e8bf7c" stroke-opacity="1.000000" stroke-width="5" stroke-linejoin="round" fill="none"/>
</g>
<g id="dog.torso" inkscape:groupmode="layer" inkscape:label="dog.torso" data-default-visible="true">
<ellipse cx="216.0" cy="164.5" rx="144.0" ry="70.5" fill="#d9a65a" fill-opacity="1.000000" stroke="#5b3c23" stroke-opacity="1.000000" stroke-width="4" stroke-linejoin="round"/>
<ellipse cx="322.0" cy="164.0" rx="46.0" ry="56.0" fill="#d9a65a" fill-opacity="1.000000" stroke="#5b3c23" stroke-opacity="1.000000" stroke-width="3" stroke-linejoin="round"/>
</g>
<g id="dog.marking.chest" inkscape:groupmode="layer" inkscape:label="dog.marking.chest" data-default-visible="true">
<polygon points="319,130 343,140 353,177 337,218 312,202 304,161" fill="#f0d39b" fill-opacity="1.000000" stroke="#c9954d" stroke-opacity="1.000000" stroke-width="2" stroke-linejoin="round"/>
</g>
<g id="dog.detail.chest_fur" inkscape:groupmode="layer" inkscape:label="dog.detail.chest_fur" data-default-visible="true">
<polygon points="324,144 338,159 328,174 342,188 325,207 312,183" fill="#f4dbad" fill-opacity="0.800000" stroke="#000000" stroke-opacity="0.000000" stroke-width="1" stroke-linejoin="round"/>
</g>
<g id="dog.leg.hind.near" inkscape:groupmode="layer" inkscape:label="dog.leg.hind.near" data-default-visible="true">
<polygon points="112,177 156,182 153,231 137,269 158,272 156,280 118,280 112,238 92,208" fill="#d9a65a" fill-opacity="1.000000" stroke="#5b3c23" stroke-opacity="1.000000" stroke-width="3" stroke-linejoin="round"/>
</g>
<g id="dog.leg.fore.near" inkscape:groupmode="layer" inkscape:label="dog.leg.fore.near" data-default-visible="true">
<polygon points="331,174 368,179 371,268 393,271 391,280 353,280 345,230" fill="#d9a65a" fill-opacity="1.000000" stroke="#5b3c23" stroke-opacity="1.000000" stroke-width="3" stroke-linejoin="round"/>
</g>
<g id="dog.head" inkscape:groupmode="layer" inkscape:label="dog.head" data-default-visible="true">
<ellipse cx="370.5" cy="115.0" rx="55.5" ry="53.0" fill="#d9a65a" fill-opacity="1.000000" stroke="#5b3c23" stroke-opacity="1.000000" stroke-width="4" stroke-linejoin="round"/>
<ellipse cx="338.5" cy="136.0" rx="33.5" ry="40.0" fill="#d9a65a" fill-opacity="1.000000" stroke="#5b3c23" stroke-opacity="1.000000" stroke-width="3" stroke-linejoin="round"/>
</g>
<g id="dog.ear.far" inkscape:groupmode="layer" inkscape:label="dog.ear.far" data-default-visible="true">
<ellipse cx="371.5" cy="108.0" rx="19.5" ry="36.0" fill="#b97c3c" fill-opacity="1.000000" stroke="#5b3c23" stroke-opacity="1.000000" stroke-width="3" stroke-linejoin="round"/>
</g>
<g id="dog.ear.near" inkscape:groupmode="layer" inkscape:label="dog.ear.near" data-default-visible="true">
<polygon points="327,72 358,78 365,102 351,146 325,132 318,96" fill="#bd8440" fill-opacity="1.000000" stroke="#5b3c23" stroke-opacity="1.000000" stroke-width="3" stroke-linejoin="round"/>
</g>
<g id="dog.muzzle" inkscape:groupmode="layer" inkscape:label="dog.muzzle" data-default-visible="true">
<ellipse cx="419.5" cy="141.5" rx="43.5" ry="29.5" fill="#f0d39b" fill-opacity="1.000000" stroke="#5b3c23" stroke-opacity="1.000000" stroke-width="3" stroke-linejoin="round"/>
<ellipse cx="459.5" cy="142.5" rx="10.5" ry="10.5" fill="#2a211a" fill-opacity="1.000000" stroke="#5b3c23" stroke-opacity="1.000000" stroke-width="2" stroke-linejoin="round"/>
<polyline points="405,157 430,163 448,158" fill="#000000" fill-opacity="0.000000" stroke="#7b4e2c" stroke-opacity="1.000000" stroke-width="2" stroke-linejoin="round" fill="none"/>
</g>
<g id="dog.eye.open" inkscape:groupmode="layer" inkscape:label="dog.eye.open" data-default-visible="true">
<ellipse cx="399.5" cy="104.5" rx="8.5" ry="8.5" fill="#fff8ea" fill-opacity="1.000000" stroke="#5b3c23" stroke-opacity="1.000000" stroke-width="2" stroke-linejoin="round"/>
<ellipse cx="402.5" cy="105.0" rx="4.5" ry="6.0" fill="#2a211a" fill-opacity="1.000000" stroke="#000000" stroke-opacity="0.000000" stroke-width="1" stroke-linejoin="round"/>
</g>
<g id="dog.eye.blink" inkscape:groupmode="layer" inkscape:label="dog.eye.blink" data-default-visible="false" style="display:none">
<polyline points="391,105 406,106" fill="#000000" fill-opacity="0.000000" stroke="#5b3c23" stroke-opacity="1.000000" stroke-width="3" stroke-linejoin="round" fill="none"/>
</g>
<g id="dog.equipment.collar" inkscape:groupmode="layer" inkscape:label="dog.equipment.collar" data-default-visible="false" style="display:none">
<polygon points="316,132 338,128 352,145 342,153 320,151" fill="#426943" fill-opacity="1.000000" stroke="#29432b" stroke-opacity="1.000000" stroke-width="2" stroke-linejoin="round"/>
<ellipse cx="336.5" cy="152.0" rx="4.5" ry="5.0" fill="#d4b554" fill-opacity="1.000000" stroke="#6e5725" stroke-opacity="1.000000" stroke-width="1" stroke-linejoin="round"/>
</g>
</svg>
