<?xml version="1.0" encoding="UTF-8" standalone="no"?>
<svg xmlns="http://www.w3.org/2000/svg" xmlns:inkscape="http://www.inkscape.org/namespaces/inkscape" width="512" height="320" viewBox="0 0 512 320">
<metadata>
{"creator": "OpenAI Codex — delegated Art Director + Visual Production owner", "date": "2026-07-13", "master": "labrador_master_left", "status": "AUTHORED_EDITABLE_SOURCE"}
</metadata>
<g id="dog.shadow.local" inkscape:groupmode="layer" inkscape:label="dog.shadow.local" data-default-visible="true">
<ellipse cx="250.5" cy="274.5" rx="206.5" ry="17.5" fill="#2b2118" fill-opacity="0.184314" stroke="#000000" stroke-opacity="0.000000" stroke-width="1" stroke-linejoin="round"/>
</g>
<g id="dog.leg.fore.far" inkscape:groupmode="layer" inkscape:label="dog.leg.fore.far" data-default-visible="true">
<polygon points="212,178 175,181 172,267 150,270 152,280 189,280 196,231" fill="#b97c3c" fill-opacity="1.000000" stroke="#5b3c23" stroke-opacity="1.000000" stroke-width="3" stroke-linejoin="round"/>
</g>
<g id="dog.leg.hind.far" inkscape:groupmode="layer" inkscape:label="dog.leg.hind.far" data-default-visible="true">
<polygon points="384,183 338,185 322,236 328,269 309,272 311,280 345,280 354,241 373,211" fill="#b97c3c" fill-opacity="1.000000" stroke="#5b3c23" stroke-opacity="1.000000" stroke-width="3" stroke-linejoin="round"/>
</g>
<g id="dog.tail" inkscape:groupmode="layer" inkscape:label="dog.tail" data-default-visible="true">
<polygon points="418,151 446,142 478,121 496,131 469,161 434,181 401,187" fill="#bd8440" fill-opacity="1.000000" stroke="#5b3c23" stroke-opacity="1.000000" stroke-width="3" stroke-linejoin="round"/>
<polyline points="484,132 463,151 435,166" fill="#000000" fill-opacity="0.000000" stroke="#e8bf7c" stroke-opacity="1.000000" stroke-width="5" stroke-linejoin="round" fill="none"/>
</g>
<g id="dog.torso" inkscape:groupmode="layer" inkscape:label="dog.torso" data-default-visible="true">
<ellipse cx="296.0" cy="164.5" rx="144.0" ry="70.5" fill="#d9a65a" fill-opacity="1.000000" stroke="#5b3c23" stroke-opacity="1.000000" stroke-width="4" stroke-linejoin="round"/>
<ellipse cx="190.0" cy="164.0" rx="46.0" ry="56.0" fill="#d9a65a" fill-opacity="1.000000" stroke="#5b3c23" stroke-opacity="1.000000" stroke-width="3" stroke-linejoin="round"/>
</g>
<g id="dog.marking.chest" inkscape:groupmode="layer" inkscape:label="dog.marking.chest" data-default-visible="true">
<polygon points="193,130 169,140 159,177 175,218 200,202 208,161" fill="#f0d39b" fill-opacity="1.000000" stroke="#c9954d" stroke-opacity="1.000000" stroke-width="2" stroke-linejoin="round"/>
</g>
<g id="dog.detail.chest_fur" inkscape:groupmode="layer" inkscape:label="dog.detail.chest_fur" data-default-visible="true">
<polygon points="188,144 174,159 184,174 170,188 187,207 200,183" fill="#f4dbad" fill-opacity="0.800000" stroke="#000000" stroke-opacity="0.000000" stroke-width="1" stroke-linejoin="round"/>
</g>
<g id="dog.leg.fore.near" inkscape:groupmode="layer" inkscape:label="dog.leg.fore.near" data-default-visible="true">
<polygon points="181,174 144,179 141,268 119,271 121,280 159,280 167,230" fill="#d9a65a" fill-opacity="1.000000" stroke="#5b3c23" stroke-opacity="1.000000" stroke-width="3" stroke-linejoin="round"/>
</g>
<g id="dog.leg.hind.near" inkscape:groupmode="layer" inkscape:label="dog.leg.hind.near" data-default-visible="true">
<polygon points="400,177 356,182 359,231 375,269 354,272 356,280 394,280 400,238 420,208" fill="#d9a65a" fill-opacity="1.000000" stroke="#5b3c23" stroke-opacity="1.000000" stroke-width="3" stroke-linejoin="round"/>
</g>
<g id="dog.head" inkscape:groupmode="layer" inkscape:label="dog.head" data-default-visible="true">
<ellipse cx="141.5" cy="115.0" rx="55.5" ry="53.0" fill="#d9a65a" fill-opacity="1.000000" stroke="#5b3c23" stroke-opacity="1.000000" stroke-width="4" stroke-linejoin="round"/>
<ellipse cx="173.5" cy="136.0" rx="33.5" ry="40.0" fill="#d9a65a" fill-opacity="1.000000" stroke="#5b3c23" stroke-opacity="1.000000" stroke-width="3" stroke-linejoin="round"/>
</g>
<g id="dog.ear.far" inkscape:groupmode="layer" inkscape:label="dog.ear.far" data-default-visible="true">
<ellipse cx="140.5" cy="108.0" rx="19.5" ry="36.0" fill="#b97c3c" fill-opacity="1.000000" stroke="#5b3c23" stroke-opacity="1.000000" stroke-width="3" stroke-linejoin="round"/>
</g>
<g id="dog.ear.near" inkscape:groupmode="layer" inkscape:label="dog.ear.near" data-default-visible="true">
<polygon points="185,72 154,78 147,102 161,146 187,132 194,96" fill="#bd8440" fill-opacity="1.000000" stroke="#5b3c23" stroke-opacity="1.000000" stroke-width="3" stroke-linejoin="round"/>
</g>
<g id="dog.muzzle" inkscape:groupmode="layer" inkscape:label="dog.muzzle" data-default-visible="true">
<ellipse cx="92.5" cy="141.5" rx="43.5" ry="29.5" fill="#f0d39b" fill-opacity="1.000000" stroke="#5b3c23" stroke-opacity="1.000000" stroke-width="3" stroke-linejoin="round"/>
<ellipse cx="52.5" cy="142.5" rx="10.5" ry="10.5" fill="#2a211a" fill-opacity="1.000000" stroke="#5b3c23" stroke-opacity="1.000000" stroke-width="2" stroke-linejoin="round"/>
<polyline points="107,157 82,163 64,158" fill="#000000" fill-opacity="0.000000" stroke="#7b4e2c" stroke-opacity="1.000000" stroke-width="2" stroke-linejoin="round" fill="none"/>
</g>
<g id="dog.eye.open" inkscape:groupmode="layer" inkscape:label="dog.eye.open" data-default-visible="true">
<ellipse cx="112.5" cy="104.5" rx="8.5" ry="8.5" fill="#fff8ea" fill-opacity="1.000000" stroke="#5b3c23" stroke-opacity="1.000000" stroke-width="2" stroke-linejoin="round"/>
<ellipse cx="109.5" cy="105.0" rx="4.5" ry="6.0" fill="#2a211a" fill-opacity="1.000000" stroke="#000000" stroke-opacity="0.000000" stroke-width="1" stroke-linejoin="round"/>
</g>
<g id="dog.eye.blink" inkscape:groupmode="layer" inkscape:label="dog.eye.blink" data-default-visible="false" style="display:none">
<polyline points="121,105 106,106" fill="#000000" fill-opacity="0.000000" stroke="#5b3c23" stroke-opacity="1.000000" stroke-width="3" stroke-linejoin="round" fill="none"/>
</g>
<g id="dog.equipment.collar" inkscape:groupmode="layer" inkscape:label="dog.equipment.collar" data-default-visible="false" style="display:none">
<polygon points="196,132 174,128 160,145 170,153 192,151" fill="#426943" fill-opacity="1.000000" stroke="#29432b" stroke-opacity="1.000000" stroke-width="2" stroke-linejoin="round"/>
<ellipse cx="175.5" cy="152.0" rx="4.5" ry="5.0" fill="#d4b554" fill-opacity="1.000000" stroke="#6e5725" stroke-opacity="1.000000" stroke-width="1" stroke-linejoin="round"/>
</g>
</svg>
